<svg width="30" height="30" viewBox="0 0 30 30" fill="none" xmlns="http://www.w3.org/2000/svg">
<g filter="url(#filter0_i_273_85)">
<rect width="30" height="30" rx="15" fill="#DDDDDD"/>
<path fill-rule="evenodd" clip-rule="evenodd" d="M19.5002 12C19.5002 14.4853 17.4855 16.5 15.0002 16.5C12.5149 16.5 10.5002 14.4853 10.5002 12C10.5002 9.51472 12.5149 7.5 15.0002 7.5C17.4855 7.5 19.5002 9.51472 19.5002 12ZM18.0002 12C18.0002 13.6569 16.657 15 15.0002 15C13.3433 15 12.0002 13.6569 12.0002 12C12.0002 10.3431 13.3433 9 15.0002 9C16.657 9 18.0002 10.3431 18.0002 12Z" fill="black"/>
<path d="M15.0002 18.75C10.1444 18.75 6.00714 21.6213 4.43115 25.644C4.81507 26.0253 5.21951 26.3859 5.64265 26.724C6.8162 23.0308 10.4977 20.25 15.0002 20.25C19.5027 20.25 23.1842 23.0308 24.3577 26.7241C24.7809 26.3859 25.1853 26.0253 25.5692 25.644C23.9932 21.6213 19.856 18.75 15.0002 18.75Z" fill="black"/>
</g>
<defs>
<filter id="filter0_i_273_85" x="0" y="0" width="30" height="32" filterUnits="userSpaceOnUse" color-interpolation-filters="sRGB">
<feFlood flood-opacity="0" result="BackgroundImageFix"/>
<feBlend mode="normal" in="SourceGraphic" in2="BackgroundImageFix" result="shape"/>
<feColorMatrix in="SourceAlpha" type="matrix" values="0 0 0 0 0 0 0 0 0 0 0 0 0 0 0 0 0 0 127 0" result="hardAlpha"/>
<feOffset dy="2"/>
<feGaussianBlur stdDeviation="2"/>
<feComposite in2="hardAlpha" operator="arithmetic" k2="-1" k3="1"/>
<feColorMatrix type="matrix" values="0 0 0 0 0 0 0 0 0 0 0 0 0 0 0 0 0 0 0.25 0"/>
<feBlend mode="normal" in2="shape" result="effect1_innerShadow_273_85"/>
</filter>
</defs>
</svg>
